<svg width="300" height="225" viewBox="0 0 300 225" fill="none" xmlns="http://www.w3.org/2000/svg">
<line x1="25" y1="177.5" x2="96" y2="177.5" stroke="#EAECF0"/>
<line x1="197" y1="177.5" x2="231" y2="177.5" stroke="#EAECF0"/>
<path d="M160.045 156.066C160.954 155.557 161.697 154.801 162.186 153.888C162.676 152.975 162.891 151.942 162.806 150.912C162.739 149.809 162.313 148.758 161.592 147.915C160.87 147.072 159.893 146.483 158.805 146.237C156.843 145.737 152.961 145.806 152.093 148.068C150.992 150.912 154.335 152.868 154.321 155.573C154.326 156.252 154.183 156.924 153.901 157.543C153.619 158.162 153.206 158.714 152.689 159.16C152.172 159.606 151.563 159.936 150.905 160.127C150.247 160.319 149.555 160.367 148.876 160.269C147.28 159.935 145.804 159.183 144.602 158.091C143.649 157.293 142.773 155.969 141.512 155.629C140.251 155.289 138.99 156.385 138.107 157.217C137.033 158.122 136.294 159.354 136.005 160.72C135.535 163.578 137.826 165.25 140.419 165.631C141.974 165.853 143.556 165.784 145.086 165.43C146.228 165.167 147.615 164.736 148.33 163.751C149.122 162.628 148.54 161.442 147.818 160.45C146.978 159.28 146.02 158.197 144.959 157.217C143.881 156.245 142.707 155.38 141.456 154.637C140.176 153.937 138.859 153.305 137.511 152.743C134.4 151.3 136.376 146.708 138.17 144.932C139.179 143.934 140.699 142.983 142.185 143.143C143.866 143.323 144.119 145.002 143.747 146.347C142.927 149.282 140.006 151.071 137.287 152.001C131.737 153.888 132.648 161.379 135.507 165.125C138.955 169.682 145.317 170.757 150.509 168.635C152.779 167.698 155.498 165.819 154.398 163.03C153.812 161.725 153.045 160.506 152.121 159.409C151.298 158.303 150.271 157.361 149.094 156.635C147.125 155.476 144.413 155.303 142.493 156.676C139.971 158.494 141.015 161.435 140.664 164.022C140.51 165.146 139.851 166.748 138.562 166.866C137.714 166.942 136.986 166.297 136.397 165.777C135.779 165.234 135.19 164.659 134.631 164.057C133.564 162.876 132.625 161.588 131.828 160.214C131.009 158.826 130.056 157.148 130.133 155.469C130.28 152.375 134.218 150.572 136.719 149.615C140.069 148.331 143.418 148.748 146.823 149.566C148.47 149.961 150.103 150.412 151.728 150.725C153.172 150.995 154.832 151.335 156.241 150.725C158.469 149.781 159.401 146.833 159.632 144.641C159.824 143.509 159.557 142.347 158.889 141.409C158.041 140.375 156.724 140.195 155.456 140.146C152.653 140.028 149.325 140.07 147.447 142.512C145.779 144.676 146.851 146.993 148.148 149.004C148.848 150.1 149.689 151.273 149.766 152.618C149.798 153.334 149.643 154.047 149.315 154.686C148.987 155.325 148.498 155.87 147.895 156.267C146.963 156.87 145.625 156.961 145.009 158.008C144.392 159.055 145.079 160.575 145.555 161.608C146.681 163.98 148.522 165.948 150.824 167.241C153.298 168.628 156.542 169.384 159.022 167.615C161.384 165.93 163.044 163.023 163.822 160.29C164.215 158.903 164.236 157.515 163.178 156.475C162.064 155.466 160.775 154.664 159.373 154.11C157.166 153.132 153.977 152.889 152.422 155.122C152.103 155.581 151.896 156.106 151.816 156.657C151.735 157.208 151.785 157.77 151.959 158.299C152.179 158.823 152.534 159.281 152.987 159.628C153.441 159.974 153.978 160.198 154.545 160.276C157.348 160.873 160.851 161.192 163.542 159.992C165.707 159.028 167.487 156.863 167.221 154.443C167.151 153.784 166.1 153.749 166.17 154.443C166.478 157.217 163.857 159.166 161.328 159.59C159.824 159.798 158.298 159.798 156.794 159.59C155.596 159.458 153.718 159.472 153.06 158.251C152.794 157.657 152.767 156.986 152.983 156.373C153.199 155.76 153.642 155.251 154.223 154.949C154.826 154.656 155.485 154.49 156.157 154.463C156.829 154.435 157.499 154.547 158.126 154.789C159.486 155.272 160.765 155.957 161.916 156.822C162.284 157.047 162.582 157.366 162.78 157.746C162.977 158.126 163.066 158.553 163.037 158.979C162.937 159.789 162.715 160.579 162.379 161.324C161.405 163.786 159.422 167.116 156.556 167.608C153.907 168.066 150.95 166.512 149.115 164.771C148.218 163.943 147.456 162.981 146.858 161.92C146.55 161.375 146.292 160.804 146.088 160.214C145.814 159.437 145.611 158.639 146.417 158.133C147.391 157.543 148.442 157.363 149.283 156.524C150.04 155.766 150.546 154.798 150.733 153.749C151.147 151.453 149.731 149.656 148.631 147.804C148.029 146.833 147.447 145.723 147.664 144.551C147.822 143.928 148.127 143.352 148.555 142.869C148.983 142.386 149.52 142.012 150.124 141.776C151.639 141.235 153.258 141.039 154.86 141.201C156.262 141.201 157.908 141.201 158.448 142.747C158.752 143.894 158.691 145.105 158.273 146.216C157.989 147.43 157.348 148.533 156.43 149.386C155.162 150.398 153.27 149.955 151.812 149.67C150.355 149.386 148.925 148.976 147.489 148.657C144.735 147.964 141.883 147.402 139.081 147.853C136.411 148.332 133.895 149.43 131.737 151.057C129.817 152.493 128.626 154.491 129.194 156.933C129.761 159.374 131.415 161.83 133.02 163.786C133.905 164.873 134.893 165.874 135.97 166.776C136.34 167.158 136.793 167.453 137.293 167.64C137.794 167.827 138.33 167.902 138.863 167.858C140.881 167.497 141.743 165.132 141.778 163.349C141.778 161.962 141.533 160.575 141.918 159.236C142.09 158.668 142.409 158.154 142.842 157.745C143.276 157.336 143.81 157.047 144.392 156.905C146.984 156.211 149.297 157.661 150.922 159.555C151.79 160.578 152.548 161.687 153.186 162.864C154.041 164.445 153.403 165.749 151.994 166.707C147.615 169.689 140.874 169.301 137.168 165.444C135.417 163.64 134.395 161.264 134.295 158.764C134.227 157.512 134.467 156.262 134.996 155.122C135.696 153.735 136.789 153.27 138.191 152.785C140.531 151.999 142.541 150.464 143.901 148.422C144.889 146.923 145.534 144.523 144.175 143.039C142.549 141.249 139.781 142.29 138.163 143.531C136.404 144.899 135.249 146.888 134.94 149.081C134.785 150.197 134.764 151.543 135.451 152.507C136.138 153.471 137.189 153.749 138.212 154.144C140.782 155.191 143.11 156.746 145.051 158.716C146.061 159.625 146.909 160.697 147.559 161.886C148.309 163.523 146.004 164.133 144.854 164.397C142.584 164.924 137.896 165.139 137.147 162.191C136.761 160.699 137.567 159.25 138.59 158.216C139.081 157.703 139.637 157.255 140.244 156.884C141.155 156.357 141.806 156.829 142.458 157.474C144.252 159.243 146.319 160.942 148.911 161.31C149.936 161.425 150.974 161.268 151.917 160.855C152.86 160.442 153.675 159.787 154.278 158.958C154.88 158.129 155.249 157.156 155.345 156.139C155.441 155.122 155.262 154.098 154.825 153.173C154.209 151.931 153.046 150.801 152.989 149.351C152.919 147.721 154.391 147.332 155.75 147.131C158.147 146.771 161.026 147.561 161.678 150.163C161.932 151.11 161.864 152.114 161.484 153.019C161.104 153.925 160.434 154.681 159.576 155.171C158.98 155.476 159.506 156.378 160.109 156.066H160.045Z" fill="#D0D5DD"/>
<path d="M133.605 206.61C158.884 206.61 179.378 204.409 179.378 201.694C179.378 198.979 158.884 196.778 133.605 196.778C108.325 196.778 87.832 198.979 87.832 201.694C87.832 204.409 108.325 206.61 133.605 206.61Z" fill="#EAECF0"/>
<path d="M190.515 187.044H109.344C108.116 187.042 106.907 186.739 105.824 186.16C104.74 185.581 103.816 184.745 103.132 183.725C102.448 182.705 102.025 181.533 101.901 180.311C101.777 179.089 101.955 177.856 102.419 176.719L105.204 170.004L93.7082 99.8354L76.5326 95.5477C76.4541 95.5275 76.3803 95.4921 76.3155 95.4434C76.2506 95.3948 76.1961 95.3338 76.1548 95.2639C76.1136 95.1941 76.0866 95.1168 76.0753 95.0366C76.064 94.9563 76.0687 94.8745 76.0891 94.7961C76.1062 94.7171 76.1393 94.6425 76.1864 94.5769C76.2335 94.5112 76.2935 94.4559 76.3628 94.4144C76.432 94.3728 76.5091 94.3459 76.5892 94.3352C76.6692 94.3246 76.7506 94.3305 76.8284 94.3525L94.4105 98.7388C94.5277 98.7689 94.6335 98.8329 94.7145 98.9227C94.7956 99.0126 94.8484 99.1243 94.8664 99.244L106.448 169.93C106.473 170.044 106.473 170.161 106.448 170.275L103.602 177.15C103.215 178.099 103.066 179.129 103.17 180.149C103.274 181.169 103.626 182.148 104.197 183C104.768 183.851 105.539 184.55 106.443 185.034C107.347 185.518 108.355 185.772 109.381 185.775H190.552C190.715 185.775 190.872 185.84 190.987 185.955C191.103 186.071 191.168 186.228 191.168 186.391C191.168 186.554 191.103 186.711 190.987 186.827C190.872 186.942 190.715 187.007 190.552 187.007L190.515 187.044Z" fill="#101828"/>
<path d="M174.361 203.035C177.817 203.035 180.62 200.232 180.62 196.775C180.62 193.319 177.817 190.516 174.361 190.516C170.904 190.516 168.102 193.319 168.102 196.775C168.102 200.232 170.904 203.035 174.361 203.035Z" fill="#101828"/>
<path d="M114.493 203.035C117.95 203.035 120.753 200.232 120.753 196.775C120.753 193.319 117.95 190.516 114.493 190.516C111.037 190.516 108.234 193.319 108.234 196.775C108.234 200.232 111.037 203.035 114.493 203.035Z" fill="#101828"/>
<path d="M186.855 170.978L111.031 170.559C110.879 170.557 110.732 170.5 110.619 170.398C110.506 170.296 110.433 170.156 110.415 170.005L104.538 118.811C104.527 118.724 104.535 118.635 104.563 118.552C104.591 118.469 104.637 118.393 104.698 118.33C104.753 118.262 104.822 118.207 104.901 118.171C104.98 118.135 105.067 118.117 105.154 118.121L203.945 119.723C204.042 119.723 204.138 119.747 204.224 119.792C204.311 119.837 204.385 119.902 204.442 119.981C204.498 120.061 204.535 120.152 204.549 120.249C204.564 120.345 204.555 120.443 204.524 120.536L187.434 170.559C187.393 170.681 187.316 170.786 187.212 170.861C187.108 170.936 186.983 170.977 186.855 170.978ZM111.586 169.327L186.412 169.783L203.107 120.979L105.869 119.402L111.586 169.327Z" fill="#101828"/>
<path d="M124.339 170.558C124.182 170.555 124.033 170.494 123.919 170.387C123.805 170.28 123.735 170.135 123.723 169.979L121.258 119.043C121.252 118.879 121.31 118.718 121.42 118.596C121.531 118.474 121.685 118.4 121.85 118.39C121.931 118.387 122.011 118.4 122.087 118.428C122.163 118.456 122.233 118.498 122.293 118.553C122.352 118.608 122.4 118.674 122.434 118.748C122.468 118.821 122.487 118.901 122.49 118.982L124.955 169.917C124.961 170.079 124.904 170.236 124.796 170.356C124.688 170.476 124.537 170.548 124.376 170.558H124.339Z" fill="#101828"/>
<path d="M140.268 170.692C140.105 170.692 139.948 170.627 139.833 170.512C139.717 170.396 139.652 170.24 139.652 170.076V119.338C139.655 119.176 139.721 119.021 139.836 118.906C139.951 118.791 140.106 118.725 140.268 118.722C140.432 118.722 140.588 118.787 140.704 118.902C140.82 119.018 140.884 119.175 140.884 119.338V170.076C140.884 170.24 140.82 170.396 140.704 170.512C140.588 170.627 140.432 170.692 140.268 170.692Z" fill="#101828"/>
<path d="M158.625 170.646C158.544 170.643 158.465 170.623 158.391 170.589C158.318 170.556 158.252 170.507 158.197 170.448C158.142 170.388 158.099 170.319 158.071 170.243C158.043 170.167 158.03 170.086 158.034 170.005L160.609 119.649C160.614 119.568 160.634 119.489 160.67 119.416C160.705 119.343 160.754 119.277 160.815 119.224C160.876 119.17 160.946 119.129 161.023 119.102C161.1 119.076 161.181 119.065 161.262 119.07C161.342 119.073 161.421 119.092 161.494 119.126C161.567 119.16 161.632 119.208 161.686 119.268C161.74 119.328 161.782 119.398 161.808 119.474C161.835 119.55 161.846 119.63 161.841 119.71L159.241 170.067C159.235 170.225 159.167 170.374 159.051 170.482C158.936 170.59 158.783 170.649 158.625 170.646Z" fill="#101828"/>
<path d="M174.363 170.693H174.289C174.126 170.672 173.979 170.588 173.877 170.459C173.776 170.33 173.729 170.166 173.747 170.003L180.006 119.918C180.016 119.837 180.041 119.759 180.081 119.688C180.121 119.617 180.175 119.555 180.239 119.504C180.303 119.454 180.376 119.417 180.454 119.395C180.533 119.373 180.615 119.366 180.696 119.376C180.777 119.386 180.855 119.411 180.926 119.451C180.997 119.491 181.059 119.545 181.11 119.609C181.16 119.673 181.197 119.746 181.219 119.825C181.241 119.903 181.248 119.985 181.238 120.066L174.979 170.151C174.958 170.3 174.885 170.437 174.772 170.537C174.658 170.636 174.513 170.692 174.363 170.693Z" fill="#101828"/>
<path d="M105.842 170.642C105.763 170.644 105.684 170.63 105.61 170.601C105.536 170.572 105.469 170.529 105.412 170.474C105.354 170.419 105.309 170.354 105.277 170.281C105.245 170.208 105.228 170.13 105.226 170.051C105.223 169.97 105.235 169.889 105.263 169.813C105.291 169.737 105.334 169.667 105.389 169.608C105.444 169.548 105.51 169.5 105.584 169.466C105.657 169.432 105.737 169.413 105.818 169.41L111.017 169.287C111.097 169.284 111.177 169.296 111.253 169.325C111.328 169.353 111.397 169.396 111.456 169.451C111.514 169.506 111.561 169.572 111.594 169.645C111.626 169.719 111.644 169.798 111.645 169.878C111.649 169.96 111.636 170.042 111.607 170.119C111.578 170.196 111.534 170.266 111.478 170.326C111.422 170.385 111.354 170.433 111.279 170.466C111.204 170.5 111.124 170.518 111.042 170.519L105.854 170.642H105.842Z" fill="#101828"/>
<path d="M106.564 38.9729C106.55 38.9047 106.55 38.8343 106.564 38.7661C106.591 38.7035 106.63 38.6468 106.679 38.5993C106.728 38.5519 106.786 38.5146 106.85 38.4896C106.913 38.4646 106.981 38.4524 107.049 38.4537C107.117 38.455 107.185 38.4698 107.247 38.4972C107.888 38.7764 108.519 39.0764 109.15 39.3867C109.211 39.4163 109.266 39.458 109.311 39.5092C109.356 39.5604 109.39 39.6201 109.411 39.6848C109.432 39.7495 109.44 39.8178 109.435 39.8856C109.429 39.9535 109.409 40.0194 109.378 40.0796C109.348 40.1408 109.306 40.1956 109.255 40.2407C109.204 40.2858 109.145 40.3204 109.081 40.3425C109.016 40.3646 108.948 40.3737 108.88 40.3695C108.812 40.3652 108.746 40.3475 108.685 40.3175C108.074 40.0072 107.454 39.7176 106.833 39.4487C106.749 39.4024 106.678 39.3333 106.631 39.2492C106.583 39.1652 106.56 39.0694 106.564 38.9729ZM110.267 40.8347C110.27 40.7439 110.295 40.6553 110.34 40.5761C110.409 40.4589 110.521 40.3731 110.652 40.3364C110.783 40.2998 110.923 40.3153 111.043 40.3796C111.653 40.7312 112.253 41.0932 112.843 41.4759C112.95 41.5533 113.024 41.669 113.048 41.7991C113.073 41.9292 113.047 42.0638 112.975 42.1752C112.904 42.2866 112.792 42.3662 112.663 42.3978C112.535 42.4293 112.399 42.4103 112.284 42.3447C111.705 41.9724 111.126 41.6207 110.536 41.3104C110.456 41.261 110.392 41.1903 110.35 41.1063C110.308 41.0223 110.29 40.9282 110.298 40.8347L110.267 40.8347ZM113.763 43.0791C113.763 42.9688 113.796 42.861 113.856 42.7688C113.939 42.6597 114.06 42.5868 114.195 42.5656C114.33 42.5444 114.468 42.5764 114.58 42.655C115.149 43.0687 115.708 43.4928 116.245 43.9375C116.352 44.0229 116.42 44.1469 116.436 44.2825C116.451 44.4181 116.413 44.5544 116.328 44.6615C116.243 44.7681 116.119 44.8366 115.983 44.8521C115.848 44.8676 115.711 44.8288 115.604 44.7443C115.066 44.3099 114.57 43.8962 113.97 43.4928C113.905 43.4452 113.853 43.3828 113.817 43.3109C113.781 43.239 113.762 43.1595 113.763 43.0791ZM113.835 65.6783C113.893 64.9283 114.078 64.1937 114.384 63.5063C114.438 63.3801 114.541 63.2809 114.669 63.2305C114.797 63.18 114.94 63.1825 115.066 63.2374C115.192 63.2922 115.292 63.395 115.342 63.523C115.393 63.651 115.39 63.7938 115.335 63.92C115.073 64.4979 114.915 65.1177 114.87 65.7507C114.866 65.8182 114.848 65.8843 114.819 65.945C114.789 66.0057 114.747 66.0598 114.696 66.1042C114.645 66.1485 114.585 66.1822 114.521 66.2032C114.457 66.2242 114.389 66.2321 114.322 66.2265C114.253 66.2239 114.186 66.2075 114.124 66.1783C114.062 66.149 114.007 66.1075 113.961 66.0563C113.916 66.005 113.881 65.9451 113.86 65.8802C113.838 65.8152 113.83 65.7465 113.835 65.6783ZM114.084 67.7469C114.063 67.6097 114.098 67.47 114.18 67.3585C114.263 67.2469 114.386 67.1727 114.523 67.1522C114.66 67.1316 114.8 67.1663 114.912 67.2488C115.023 67.3312 115.097 67.4546 115.118 67.5917C115.298 68.1749 115.61 68.7091 116.028 69.1535C116.077 69.2016 116.115 69.2588 116.141 69.3218C116.168 69.3848 116.181 69.4524 116.181 69.5207C116.181 69.589 116.168 69.6565 116.141 69.7196C116.115 69.7826 116.077 69.8398 116.028 69.8879C115.93 69.9833 115.798 70.0366 115.661 70.0366C115.524 70.0366 115.392 69.9833 115.294 69.8879C114.76 69.3238 114.364 68.6443 114.135 67.902L114.084 67.7469ZM115.428 61.9342C115.423 61.8134 115.463 61.6951 115.542 61.6032C116.007 61.0351 116.538 60.5247 117.125 60.0828C117.235 60.0031 117.372 59.9694 117.507 59.9887C117.642 60.0079 117.765 60.0787 117.849 60.1862C117.891 60.24 117.921 60.3018 117.939 60.3678C117.957 60.4338 117.961 60.5026 117.951 60.5703C117.941 60.6379 117.918 60.7029 117.883 60.7613C117.847 60.8197 117.801 60.8704 117.745 60.9102C117.227 61.3044 116.756 61.7554 116.338 62.2548C116.296 62.308 116.244 62.3521 116.184 62.3847C116.125 62.4172 116.059 62.4374 115.992 62.4442C115.924 62.4509 115.856 62.4441 115.791 62.424C115.726 62.4039 115.666 62.371 115.614 62.3272C115.561 62.2735 115.52 62.2084 115.495 62.1368C115.47 62.0652 115.461 61.9889 115.47 61.9135L115.428 61.9342ZM116.928 70.4567L116.928 70.374C116.951 70.2393 117.025 70.1188 117.135 70.0378C117.245 69.9568 117.382 69.9216 117.518 69.9396C117.676 69.9549 117.835 69.9549 117.993 69.9396C118.441 69.9342 118.885 69.8538 119.307 69.7017C119.444 69.6564 119.594 69.6675 119.723 69.7325C119.851 69.7975 119.949 69.911 119.995 70.0482C120.04 70.1853 120.029 70.3348 119.964 70.4638C119.899 70.5928 119.785 70.6907 119.648 70.736C119.116 70.9205 118.557 71.0182 117.993 71.0256C117.78 71.0405 117.566 71.0405 117.352 71.0256C117.218 71.0027 117.098 70.9281 117.019 70.8178C116.94 70.7074 116.907 70.5703 116.928 70.436L116.928 70.4567ZM116.98 45.7062C116.983 45.5771 117.031 45.4531 117.114 45.3545C117.162 45.306 117.219 45.2676 117.282 45.2413C117.345 45.215 117.413 45.2015 117.481 45.2015C117.55 45.2015 117.617 45.215 117.68 45.2413C117.743 45.2676 117.8 45.306 117.849 45.3545C118.366 45.8199 118.883 46.3164 119.369 46.8129C119.465 46.9116 119.518 47.0445 119.516 47.1822C119.514 47.3199 119.457 47.4512 119.359 47.5472C119.26 47.6432 119.127 47.6961 118.989 47.6941C118.852 47.6922 118.72 47.6356 118.624 47.5369C118.148 47.0507 117.662 46.575 117.156 46.1199C117.094 46.0664 117.046 45.9992 117.016 45.9237C116.985 45.8483 116.973 45.7666 116.98 45.6855L116.98 45.7062ZM118.707 59.4519C118.706 59.3521 118.733 59.2541 118.787 59.1696C118.84 59.0852 118.916 59.018 119.007 58.9761C119.667 58.6757 120.362 58.4569 121.075 58.3245C121.213 58.2998 121.354 58.3306 121.468 58.4101C121.583 58.4897 121.661 58.6114 121.686 58.7486C121.71 58.8857 121.68 59.0271 121.6 59.1415C121.521 59.2559 121.399 59.3341 121.262 59.3588C120.62 59.469 119.994 59.6602 119.4 59.9276C119.275 59.9836 119.133 59.9878 119.005 59.9394C118.877 59.8909 118.774 59.7937 118.717 59.6691C118.696 59.5916 118.692 59.5102 118.707 59.4312L118.707 59.4519ZM119.876 48.6849C119.877 48.5796 119.91 48.4772 119.971 48.3913C120.032 48.3053 120.117 48.24 120.216 48.204C120.315 48.168 120.423 48.1631 120.524 48.1899C120.626 48.2167 120.717 48.2739 120.786 48.3539C121.241 48.9021 121.686 49.4606 122.079 50.0295C122.118 50.0843 122.146 50.1463 122.161 50.2121C122.176 50.2778 122.178 50.3459 122.167 50.4124C122.155 50.4789 122.13 50.5424 122.094 50.5992C122.058 50.656 122.01 50.7049 121.955 50.7432C121.899 50.7828 121.836 50.8111 121.77 50.8264C121.703 50.8416 121.634 50.8435 121.567 50.832C121.499 50.8204 121.435 50.7957 121.377 50.7591C121.32 50.7226 121.27 50.675 121.231 50.619C120.858 50.0812 120.434 49.5847 119.989 49.0159C119.908 48.9177 119.867 48.7917 119.876 48.6642L119.876 48.6849ZM120.786 69.2466C120.785 69.1662 120.803 69.0867 120.839 69.0148C120.875 68.9428 120.928 68.8805 120.993 68.8329C121.466 68.4683 121.89 68.0442 122.255 67.571L122.337 67.4573C122.42 67.3475 122.542 67.275 122.678 67.2556C122.814 67.2362 122.952 67.2716 123.061 67.3538C123.17 67.4363 123.243 67.5578 123.264 67.6929C123.286 67.8279 123.254 67.9659 123.175 68.0778L123.082 68.202C122.659 68.7475 122.165 69.2345 121.613 69.65C121.538 69.7113 121.447 69.7498 121.351 69.761C121.255 69.7722 121.158 69.7556 121.07 69.7131C120.983 69.6707 120.91 69.6042 120.86 69.5215C120.809 69.4388 120.784 69.3434 120.786 69.2466ZM122.255 52.0774C122.253 51.9841 122.278 51.8923 122.325 51.812C122.372 51.7317 122.441 51.6661 122.524 51.6223C122.643 51.558 122.784 51.5426 122.915 51.5792C123.046 51.6158 123.158 51.7017 123.227 51.8188C123.579 52.4351 123.897 53.0704 124.178 53.7219C124.217 53.8434 124.209 53.9748 124.156 54.0908C124.103 54.2068 124.01 54.2993 123.893 54.3506C123.777 54.4018 123.645 54.4082 123.524 54.3686C123.403 54.3289 123.301 54.246 123.237 54.1356C122.968 53.5357 122.668 52.9255 122.327 52.3256C122.274 52.2464 122.249 52.1519 122.255 52.0567L122.255 52.0774ZM122.71 58.7486C122.72 58.6123 122.783 58.4855 122.886 58.3948C122.988 58.3041 123.121 58.2567 123.258 58.2624C123.981 58.3175 124.698 58.4386 125.399 58.6244C125.465 58.6413 125.527 58.671 125.581 58.7119C125.636 58.7528 125.681 58.804 125.716 58.8626C125.751 58.9212 125.773 58.9861 125.783 59.0535C125.792 59.1209 125.788 59.1895 125.771 59.2554C125.746 59.3441 125.699 59.425 125.634 59.4902C125.568 59.5554 125.488 59.6028 125.399 59.6277C125.448 59.6746 125.486 59.7308 125.513 59.793C125.54 59.8552 125.554 59.9221 125.554 59.9897L125.554 60.3207C125.556 60.9255 125.522 61.53 125.451 62.1307C125.432 62.2671 125.362 62.391 125.254 62.4761C125.145 62.5611 125.008 62.6005 124.871 62.5858C124.736 62.5677 124.613 62.4967 124.529 62.3881C124.446 62.2795 124.409 62.1423 124.427 62.0066C124.489 61.4468 124.52 60.8839 124.52 60.3207L124.52 60.0104C124.519 59.9133 124.544 59.8177 124.594 59.734C124.643 59.6502 124.714 59.5813 124.799 59.5346C124.268 59.415 123.728 59.3354 123.185 59.2967C123.05 59.2861 122.924 59.2227 122.835 59.1201C122.746 59.0176 122.701 58.8841 122.71 58.7486ZM123.268 65.9886C123.253 65.9135 123.253 65.8361 123.268 65.761C123.558 65.1662 123.793 64.5466 123.972 63.9097C124.009 63.7725 124.099 63.6557 124.222 63.5849C124.345 63.5141 124.491 63.4951 124.628 63.5321C124.765 63.5692 124.882 63.6592 124.953 63.7823C125.024 63.9055 125.043 64.0518 125.006 64.1889C124.805 64.8989 124.546 65.5908 124.23 66.2575C124.17 66.3785 124.065 66.4711 123.937 66.5155C123.81 66.56 123.67 66.5528 123.547 66.4954C123.464 66.4417 123.398 66.3658 123.356 66.2761C123.314 66.1865 123.298 66.0869 123.31 65.9886L123.268 65.9886ZM123.868 55.8629C123.866 55.7506 123.902 55.6409 123.969 55.551C124.037 55.4611 124.132 55.3962 124.24 55.3664C124.371 55.3276 124.511 55.3417 124.631 55.4055C124.751 55.4694 124.841 55.578 124.882 55.7077C125.09 56.3847 125.249 57.0761 125.357 57.7763C125.368 57.8442 125.366 57.9136 125.35 57.9805C125.334 58.0474 125.305 58.1105 125.264 58.1662C125.224 58.2219 125.173 58.2692 125.115 58.3052C125.056 58.3412 124.991 58.3653 124.923 58.3762C124.855 58.3871 124.786 58.3845 124.719 58.3685C124.652 58.3526 124.589 58.3236 124.533 58.2833C124.477 58.2429 124.43 58.192 124.394 58.1334C124.358 58.0748 124.334 58.0097 124.323 57.9418C124.213 57.2812 124.061 56.6283 123.868 55.987L123.868 55.8629ZM126.743 59.7828C126.729 59.7111 126.729 59.6373 126.743 59.5656C126.8 59.441 126.903 59.3438 127.031 59.2954C127.159 59.2469 127.301 59.2511 127.426 59.3071C128.078 59.6048 128.707 59.9505 129.308 60.3414C129.425 60.4141 129.508 60.5301 129.539 60.6639C129.57 60.7978 129.547 60.9384 129.474 61.055C129.401 61.1716 129.285 61.2545 129.151 61.2856C129.018 61.3166 128.877 61.2932 128.76 61.2205C128.195 60.8655 127.608 60.5476 127.002 60.269C126.917 60.2215 126.847 60.1503 126.801 60.0641C126.755 59.9778 126.735 59.8802 126.743 59.7828ZM130.26 61.9652C130.261 61.8487 130.301 61.7359 130.374 61.6446C130.416 61.5903 130.469 61.545 130.529 61.5114C130.589 61.4778 130.655 61.4565 130.724 61.4488C130.792 61.4411 130.861 61.4472 130.927 61.4666C130.993 61.486 131.055 61.5184 131.108 61.5618C131.646 61.9859 132.142 62.4617 132.701 62.9581C132.8 63.0541 132.856 63.1854 132.858 63.3231C132.86 63.4609 132.807 63.5937 132.711 63.6925C132.615 63.7912 132.484 63.8478 132.346 63.8497C132.209 63.8517 132.076 63.7988 131.977 63.7028C131.493 63.2328 130.985 62.7874 130.457 62.3686C130.394 62.3172 130.344 62.2524 130.31 62.179C130.276 62.1056 130.259 62.0254 130.26 61.9445L130.26 61.9652ZM133.435 65.2439L133.766 64.8405L134.159 64.4992C134.656 65.0784 135.08 65.5956 135.493 66.123C135.577 66.2315 135.614 66.3686 135.596 66.5043C135.579 66.64 135.509 66.7632 135.4 66.847C135.347 66.8897 135.286 66.9212 135.22 66.9396C135.155 66.9581 135.086 66.9631 135.019 66.9544C134.951 66.9457 134.886 66.9235 134.827 66.8891C134.768 66.8546 134.717 66.8087 134.676 66.754C134.273 66.2265 133.87 65.7197 133.435 65.2232L133.435 65.2439ZM135.773 68.1296C135.774 68.0443 135.795 67.9604 135.834 67.8849C135.874 67.8094 135.931 67.7444 136 67.6952C136.116 67.6198 136.256 67.5927 136.392 67.6198C136.527 67.6468 136.647 67.7259 136.724 67.84C137.117 68.4192 137.49 69.0087 137.841 69.6189C137.91 69.7358 137.93 69.875 137.897 70.0066C137.864 70.1381 137.781 70.2515 137.666 70.3223C137.547 70.3915 137.406 70.4119 137.273 70.3791C137.14 70.3463 137.025 70.2628 136.952 70.1464C136.607 69.5603 136.245 68.9811 135.866 68.4088C135.802 68.3223 135.769 68.2165 135.773 68.1089L135.773 68.1296ZM137.841 71.6979C137.841 71.6023 137.867 71.5085 137.916 71.4265C137.966 71.3445 138.036 71.2774 138.121 71.2324C138.243 71.1711 138.384 71.1606 138.514 71.2032C138.644 71.2459 138.752 71.3382 138.814 71.46C139.134 72.0909 139.434 72.7218 139.724 73.3631C139.776 73.4895 139.778 73.6314 139.727 73.7588C139.677 73.8862 139.579 73.9891 139.455 74.0457C139.392 74.0731 139.325 74.0879 139.257 74.0892C139.189 74.0905 139.121 74.0783 139.058 74.0533C138.994 74.0283 138.936 73.991 138.887 73.9435C138.838 73.8961 138.799 73.8394 138.772 73.7768C138.503 73.1562 138.203 72.5356 137.893 71.9358C137.873 71.8511 137.869 71.7632 137.883 71.6772L137.841 71.6979ZM139.517 75.4937C139.492 75.3566 139.523 75.2152 139.603 75.1008C139.682 74.9863 139.804 74.9082 139.941 74.8835C140.078 74.8588 140.219 74.8896 140.334 74.9691C140.448 75.0486 140.526 75.1704 140.551 75.3075C140.799 75.9591 141.027 76.6211 141.244 77.2934C141.287 77.4237 141.276 77.5655 141.213 77.6876C141.151 77.8098 141.043 77.9024 140.913 77.945C140.781 77.9841 140.64 77.9704 140.518 77.9066C140.396 77.8429 140.304 77.7342 140.262 77.6037C140.055 76.9521 139.827 76.3108 139.589 75.6695C139.56 75.6086 139.549 75.5402 139.558 75.473L139.517 75.4937ZM140.799 79.4344C140.798 79.322 140.833 79.2123 140.901 79.1225C140.968 79.0326 141.063 78.9677 141.172 78.9379C141.305 78.9027 141.446 78.9209 141.566 78.9885C141.686 79.0561 141.774 79.1678 141.813 79.2999C141.989 79.9722 142.165 80.6548 142.309 81.3685C142.325 81.435 142.327 81.504 142.315 81.5713C142.304 81.6386 142.279 81.703 142.242 81.7607C142.206 81.8184 142.158 81.8683 142.102 81.9075C142.046 81.9467 141.983 81.9744 141.916 81.989C141.851 82.0042 141.782 82.006 141.716 81.9944C141.649 81.9827 141.585 81.9578 141.528 81.9212C141.472 81.8846 141.423 81.8369 141.384 81.7811C141.346 81.7252 141.32 81.6623 141.306 81.596C141.151 80.9237 140.996 80.2618 140.81 79.5998L140.799 79.4344ZM141.585 106.222L141.585 106.14L141.875 104.071C141.883 104.004 141.904 103.94 141.936 103.881C141.969 103.823 142.013 103.771 142.066 103.73C142.119 103.688 142.18 103.658 142.245 103.64C142.31 103.622 142.377 103.618 142.444 103.626C142.58 103.644 142.704 103.715 142.789 103.823C142.874 103.932 142.914 104.069 142.899 104.206L142.609 106.274C142.6 106.411 142.536 106.539 142.432 106.629C142.329 106.719 142.193 106.765 142.056 106.755C141.919 106.746 141.791 106.682 141.701 106.578C141.611 106.474 141.566 106.339 141.575 106.202L141.585 106.222ZM141.699 83.4681C141.693 83.4002 141.7 83.3317 141.721 83.2666C141.741 83.2016 141.774 83.1411 141.818 83.0888C141.906 82.9831 142.033 82.9167 142.17 82.9044C142.307 82.892 142.443 82.9347 142.549 83.0229C142.655 83.1112 142.721 83.2378 142.734 83.375C142.858 84.0576 142.961 84.7506 143.064 85.4436C143.082 85.5805 143.046 85.7189 142.962 85.8292C142.879 85.9394 142.756 86.0126 142.62 86.0331C142.484 86.0507 142.347 86.0138 142.238 85.9304C142.13 85.8471 142.059 85.7241 142.041 85.5884L141.72 83.5198L141.699 83.4681ZM142.123 102.085L142.123 102.023L142.32 99.9547C142.331 99.8175 142.396 99.6903 142.501 99.6011C142.605 99.5119 142.741 99.4679 142.878 99.4789C143.015 99.4899 143.143 99.5549 143.232 99.6596C143.321 99.7644 143.365 99.9002 143.354 100.037C143.302 100.73 143.24 101.423 143.158 102.106C143.142 102.242 143.073 102.365 142.967 102.451C142.86 102.536 142.724 102.576 142.589 102.561C142.474 102.542 142.37 102.485 142.293 102.398C142.215 102.312 142.17 102.201 142.165 102.085L142.123 102.085ZM142.268 87.6052C142.261 87.4681 142.309 87.3338 142.401 87.232C142.493 87.1302 142.622 87.0691 142.759 87.0622C142.897 87.0554 143.031 87.1033 143.133 87.1954C143.234 87.2876 143.296 87.4164 143.302 87.5535C143.375 88.2465 143.437 88.9498 143.478 89.6221C143.485 89.6907 143.478 89.7599 143.457 89.8256C143.436 89.8912 143.402 89.9517 143.356 90.0033C143.31 90.0548 143.254 90.0963 143.192 90.1251C143.129 90.1538 143.061 90.1692 142.992 90.1703C142.857 90.1788 142.723 90.1337 142.62 90.0447C142.518 89.9557 142.455 89.8299 142.444 89.6945C142.444 89.0015 142.34 88.3189 142.278 87.6259L142.268 87.6052ZM142.454 97.9481C142.454 97.2655 142.516 96.5725 142.537 95.8796C142.538 95.8116 142.553 95.7446 142.58 95.6824C142.608 95.6202 142.647 95.5639 142.696 95.5169C142.745 95.4698 142.803 95.4329 142.866 95.4081C142.929 95.3834 142.997 95.3714 143.064 95.3728C143.199 95.3829 143.325 95.4423 143.419 95.5396C143.512 95.6369 143.567 95.7653 143.571 95.9002C143.571 96.6036 143.571 97.2965 143.489 97.9688C143.481 98.1069 143.419 98.2364 143.316 98.3292C143.214 98.4221 143.079 98.4709 142.94 98.4653C142.816 98.4477 142.702 98.3856 142.621 98.2904C142.539 98.1953 142.494 98.0736 142.496 97.9481L142.454 97.9481ZM142.537 91.7424C142.537 91.6052 142.591 91.4737 142.688 91.3767C142.785 91.2797 142.917 91.2253 143.054 91.2253C143.191 91.2253 143.323 91.2797 143.42 91.3767C143.517 91.4737 143.571 91.6052 143.571 91.7424L143.571 93.811C143.571 93.9481 143.517 94.0797 143.42 94.1767C143.323 94.2736 143.191 94.3281 143.054 94.3281C142.987 94.3295 142.92 94.3174 142.857 94.2926C142.794 94.2677 142.737 94.2306 142.689 94.1834C142.641 94.1362 142.603 94.0799 142.577 94.0177C142.55 93.9555 142.537 93.8888 142.537 93.8213C142.537 93.1284 142.537 92.4457 142.537 91.7527L142.537 91.7424Z" fill="#D0D5DD"/>
<path d="M103.604 37.8217L103.604 37.6563C103.649 37.5279 103.742 37.4223 103.864 37.3623C103.986 37.3023 104.127 37.2927 104.256 37.3356C104.587 37.4494 104.918 37.5632 105.29 37.6873C105.417 37.736 105.52 37.8328 105.576 37.9567C105.632 38.0806 105.637 38.2216 105.59 38.3492C105.543 38.4781 105.447 38.5832 105.323 38.6414C105.199 38.6996 105.057 38.7061 104.928 38.6595C104.604 38.5354 104.283 38.4216 103.966 38.3182C103.861 38.285 103.769 38.2189 103.704 38.1296C103.638 38.0402 103.604 37.9323 103.604 37.8217Z" fill="#D0D5DD"/>
<path d="M156.489 94.1517C156.565 93.4521 156.7 92.7601 156.892 92.0831C156.91 92.0152 156.941 91.9514 156.983 91.8954C157.025 91.8394 157.078 91.7923 157.139 91.7568C157.199 91.7213 157.266 91.698 157.336 91.6883C157.405 91.6786 157.476 91.6827 157.544 91.7004C157.612 91.7181 157.675 91.7489 157.731 91.7912C157.787 91.8335 157.835 91.8864 157.87 91.947C157.906 92.0075 157.929 92.0744 157.939 92.1439C157.948 92.2134 157.944 92.2841 157.926 92.352C157.753 92.9822 157.632 93.6257 157.564 94.2758C157.558 94.3438 157.538 94.4099 157.506 94.4702C157.474 94.5305 157.43 94.5839 157.377 94.6271C157.324 94.6704 157.263 94.7028 157.198 94.7224C157.132 94.742 157.064 94.7484 156.996 94.7412C156.921 94.7422 156.848 94.7269 156.78 94.6965C156.713 94.666 156.653 94.6211 156.604 94.5648C156.556 94.5086 156.521 94.4425 156.501 94.3711C156.481 94.2997 156.477 94.2248 156.489 94.1517ZM157.523 90.1903C157.513 90.1321 157.513 90.0727 157.523 90.0145L158.216 88.0907C158.238 88.0251 158.272 87.9644 158.318 87.9124C158.363 87.8603 158.419 87.8179 158.481 87.7877C158.543 87.7575 158.611 87.74 158.68 87.7364C158.749 87.7327 158.818 87.743 158.883 87.7665C158.948 87.79 159.008 87.8263 159.058 87.8733C159.109 87.9203 159.15 87.9769 159.178 88.04C159.207 88.103 159.222 88.1711 159.224 88.2402C159.226 88.3093 159.214 88.3781 159.188 88.4424L158.495 90.3662C158.484 90.4341 158.459 90.4991 158.422 90.5574C158.386 90.6157 158.338 90.6662 158.282 90.7061C158.225 90.7459 158.162 90.7744 158.095 90.7897C158.028 90.805 157.958 90.8069 157.89 90.7954C157.822 90.7839 157.757 90.7591 157.699 90.7224C157.641 90.6857 157.59 90.6379 157.55 90.5818C157.51 90.5256 157.482 90.4621 157.467 90.3949C157.451 90.3278 157.449 90.2582 157.461 90.1903L157.523 90.1903ZM158.909 86.3428C158.899 86.2846 158.899 86.2251 158.909 86.1669L159.633 84.2432C159.656 84.1794 159.692 84.121 159.737 84.0712C159.783 84.0214 159.839 83.9813 159.901 83.9534C159.962 83.9254 160.029 83.9101 160.097 83.9084C160.165 83.9066 160.232 83.9185 160.295 83.9432C160.359 83.9673 160.418 84.0039 160.468 84.0508C160.518 84.0978 160.558 84.1541 160.585 84.2167C160.613 84.2792 160.629 84.3467 160.63 84.4151C160.632 84.4836 160.62 84.5517 160.595 84.6155L159.881 86.529C159.833 86.656 159.736 86.7587 159.612 86.8148C159.488 86.8709 159.347 86.876 159.219 86.8289C159.123 86.7903 159.042 86.7227 158.986 86.6355C158.931 86.5484 158.904 86.446 158.909 86.3428ZM160.347 82.5366C160.331 82.472 160.331 82.4047 160.347 82.3401C160.595 81.7092 160.853 81.0679 161.122 80.437C161.177 80.313 161.277 80.2148 161.403 80.1628C161.528 80.1108 161.668 80.109 161.795 80.1577C161.919 80.2145 162.018 80.3168 162.07 80.4436C162.122 80.5705 162.123 80.7124 162.074 80.8404C161.805 81.4609 161.557 82.0918 161.309 82.7228C161.283 82.786 161.246 82.8436 161.199 82.8924C161.151 82.9411 161.095 82.9801 161.032 83.007C160.97 83.0339 160.903 83.0482 160.835 83.0491C160.767 83.0501 160.699 83.0376 160.636 83.0124C160.547 82.97 160.472 82.9024 160.42 82.8178C160.369 82.7333 160.343 82.6355 160.347 82.5366ZM161.929 78.7614C161.914 78.6934 161.914 78.6227 161.929 78.5546L162.788 76.6825C162.816 76.6204 162.857 76.5647 162.908 76.5185C162.959 76.4723 163.018 76.4367 163.082 76.4136C163.147 76.3905 163.215 76.3804 163.283 76.384C163.352 76.3875 163.419 76.4046 163.481 76.4343C163.604 76.4947 163.699 76.6009 163.746 76.7303C163.792 76.8598 163.786 77.0022 163.729 77.1273C163.429 77.7375 163.15 78.3477 162.881 78.9683C162.853 79.1055 162.772 79.2261 162.656 79.3037C162.54 79.3813 162.397 79.4094 162.26 79.382C162.123 79.3546 162.002 79.2738 161.925 79.1574C161.847 79.041 161.819 78.8986 161.846 78.7614L161.929 78.7614ZM163.687 75.069C163.687 74.9857 163.708 74.9036 163.749 74.8311C164.06 74.2209 164.38 73.6107 164.722 73.0108C164.754 72.9508 164.798 72.8979 164.851 72.8553C164.905 72.8127 164.966 72.7813 165.032 72.7629C165.097 72.7446 165.166 72.7397 165.234 72.7485C165.301 72.7573 165.366 72.7797 165.425 72.8143C165.544 72.8816 165.632 72.9935 165.669 73.1253C165.705 73.2572 165.689 73.3982 165.622 73.5176C165.291 74.1071 164.97 74.707 164.66 75.3069C164.629 75.3673 164.587 75.421 164.535 75.4648C164.483 75.5085 164.424 75.5415 164.359 75.5617C164.294 75.582 164.226 75.5891 164.159 75.5826C164.092 75.5762 164.026 75.5563 163.967 75.5241C163.882 75.48 163.81 75.4132 163.761 75.331C163.712 75.2488 163.686 75.1545 163.687 75.0587L163.687 75.069ZM165.684 71.5007C165.687 71.4067 165.711 71.3147 165.756 71.2318C166.118 70.6423 166.49 70.0631 166.873 69.4839C166.911 69.4271 166.961 69.3786 167.018 69.341C167.075 69.3035 167.14 69.2777 167.207 69.2652C167.274 69.2527 167.343 69.2537 167.41 69.2682C167.477 69.2826 167.541 69.3102 167.597 69.3494C167.653 69.3868 167.702 69.4352 167.739 69.4916C167.777 69.548 167.802 69.6113 167.815 69.6779C167.827 69.7444 167.826 69.8127 167.812 69.8789C167.798 69.9451 167.77 70.0077 167.732 70.0631C167.359 70.6216 167.014 71.1904 166.697 71.7696C166.639 71.8675 166.551 71.9434 166.445 71.9858C166.339 72.0281 166.223 72.0345 166.113 72.0038C166.004 71.9732 165.907 71.9073 165.839 71.8164C165.771 71.7254 165.734 71.6145 165.735 71.5007L165.684 71.5007ZM167.969 68.0565C167.967 67.9443 168.004 67.8346 168.073 67.7463L168.549 67.1257C168.807 66.7844 169.076 66.443 169.355 66.0914C169.399 66.0391 169.452 65.9959 169.512 65.9642C169.572 65.9325 169.638 65.913 169.706 65.9068C169.774 65.9005 169.842 65.9077 169.907 65.9278C169.972 65.948 170.032 65.9807 170.085 66.0242C170.137 66.0676 170.18 66.121 170.212 66.1811C170.243 66.2413 170.263 66.3071 170.269 66.3748C170.275 66.4425 170.268 66.5108 170.248 66.5758C170.228 66.6407 170.195 66.701 170.152 66.7533C169.883 67.0843 169.614 67.4049 169.366 67.7876L168.9 68.3979C168.835 68.4847 168.744 68.5488 168.641 68.5812C168.537 68.6136 168.426 68.6125 168.323 68.5782C168.22 68.5439 168.13 68.478 168.067 68.39C168.004 68.3019 167.969 68.1961 167.969 68.0876L167.969 68.0565ZM170.586 64.9537C170.589 64.8225 170.641 64.6972 170.731 64.602C171.207 64.0952 171.693 63.5677 172.2 63.1333C172.247 63.0852 172.303 63.0469 172.365 63.0208C172.427 62.9947 172.494 62.9812 172.562 62.9812C172.629 62.9812 172.696 62.9947 172.758 63.0208C172.82 63.0469 172.876 63.0852 172.924 63.1333C172.972 63.1814 173.011 63.2386 173.037 63.3016C173.063 63.3646 173.077 63.4322 173.077 63.5005C173.077 63.5688 173.063 63.6364 173.037 63.6994C173.011 63.7624 172.972 63.8196 172.924 63.8677C172.438 64.3228 171.962 64.7985 171.507 65.295C171.459 65.3435 171.401 65.3819 171.338 65.4082C171.275 65.4344 171.208 65.448 171.139 65.448C171.071 65.448 171.004 65.4344 170.941 65.4082C170.878 65.3819 170.82 65.3435 170.772 65.295C170.72 65.2532 170.677 65.2015 170.645 65.1429C170.613 65.0843 170.593 65.02 170.586 64.9537ZM173.565 62.1507C173.564 62.0754 173.58 62.0009 173.613 61.9328C173.645 61.8647 173.692 61.8048 173.751 61.7577C174.279 61.313 174.785 60.8786 175.385 60.4752C175.497 60.3966 175.635 60.3646 175.77 60.3858C175.905 60.407 176.027 60.4799 176.109 60.589C176.149 60.6439 176.178 60.7063 176.194 60.7725C176.211 60.8386 176.213 60.9073 176.203 60.9746C176.192 61.0419 176.168 61.1064 176.133 61.1645C176.097 61.2225 176.051 61.273 175.995 61.313C175.458 61.706 174.961 62.1197 174.413 62.5438C174.307 62.6313 174.17 62.6739 174.033 62.6623C173.896 62.6507 173.769 62.5859 173.679 62.4817C173.606 62.3864 173.566 62.2704 173.565 62.1507ZM176.875 59.7512C176.874 59.6631 176.895 59.5762 176.937 59.4986C176.979 59.4209 177.039 59.3548 177.113 59.3065C177.702 58.9341 178.312 58.5824 178.923 58.2722C179.045 58.2091 179.187 58.1971 179.318 58.2388C179.449 58.2805 179.558 58.3725 179.621 58.4945C179.684 58.6166 179.696 58.7587 179.654 58.8897C179.612 59.0206 179.52 59.1296 179.398 59.1927C178.819 59.503 178.24 59.8339 177.661 60.227C177.603 60.2631 177.539 60.2874 177.472 60.2987C177.404 60.3099 177.336 60.3078 177.27 60.2924C177.203 60.277 177.141 60.2487 177.085 60.2091C177.03 60.1695 176.983 60.1193 176.947 60.0615C176.896 59.9776 176.871 59.8804 176.875 59.7822L176.875 59.7512ZM180.484 57.8378C180.484 57.7368 180.513 57.638 180.568 57.5535C180.623 57.4689 180.702 57.4024 180.795 57.362C181.45 57.0793 182.101 56.8311 182.749 56.6173C182.815 56.5857 182.887 56.5685 182.96 56.5667C183.033 56.5649 183.106 56.5786 183.173 56.607C183.241 56.6353 183.301 56.6776 183.351 56.731C183.401 56.7845 183.439 56.8479 183.462 56.917C183.486 56.9862 183.495 57.0596 183.488 57.1324C183.481 57.2051 183.459 57.2756 183.422 57.3391C183.386 57.4027 183.337 57.4578 183.278 57.501C183.219 57.5442 183.152 57.5743 183.08 57.5895C182.46 57.7964 181.829 58.0446 181.208 58.3135C181.082 58.3661 180.94 58.3674 180.813 58.3172C180.685 58.267 180.582 58.1693 180.526 58.0446C180.502 57.978 180.488 57.9083 180.484 57.8378ZM184.363 56.5346C184.362 56.4195 184.401 56.3076 184.472 56.2174C184.544 56.1272 184.644 56.0639 184.756 56.0381C185.438 55.8719 186.129 55.7407 186.825 55.6451C186.892 55.6349 186.961 55.6384 187.027 55.6555C187.093 55.6725 187.155 55.7027 187.209 55.7442C187.263 55.7858 187.308 55.8378 187.341 55.8971C187.375 55.9565 187.396 56.0221 187.404 56.0898C187.422 56.224 187.386 56.3598 187.305 56.4681C187.224 56.5764 187.103 56.6485 186.969 56.669C186.318 56.7621 185.656 56.8862 185.004 57.0414C184.871 57.0697 184.733 57.0458 184.617 56.9745C184.502 56.9032 184.418 56.7901 184.384 56.6587L184.363 56.5346Z" fill="#D0D5DD"/>
<path d="M188.427 55.9766C188.427 55.843 188.479 55.7145 188.571 55.6181C188.664 55.5217 188.79 55.4648 188.924 55.4595C189.275 55.4595 189.627 55.4595 189.958 55.4595C190.026 55.4564 190.094 55.4678 190.158 55.4928C190.222 55.5179 190.279 55.5561 190.327 55.6049C190.375 55.6536 190.412 55.712 190.435 55.776C190.459 55.8401 190.469 55.9084 190.465 55.9766C190.465 56.1138 190.41 56.2453 190.313 56.3423C190.216 56.4393 190.085 56.4938 189.948 56.4938C189.606 56.4938 189.275 56.4938 188.913 56.4938C188.845 56.4965 188.778 56.4859 188.714 56.4624C188.65 56.439 188.591 56.4032 188.542 56.357C188.492 56.3109 188.451 56.2554 188.423 56.1937C188.394 56.132 188.378 56.0652 188.376 55.9973L188.427 55.9766Z" fill="#D0D5DD"/>
<path d="M97.4414 44.461C94.704 47.5453 91.0781 49.7056 87.0626 50.6447C83.0471 51.5837 78.8393 51.2554 75.018 49.7049C75.018 49.7049 75.1938 42.4649 83.6543 40.0963C92.1148 37.7278 97.4414 44.461 97.4414 44.461Z" fill="white"/>
<path d="M74.4986 49.7061C74.4986 49.6337 74.7882 42.011 83.5176 39.6114C92.247 37.2119 97.7908 44.0795 97.8425 44.1519C97.9172 44.2441 97.958 44.3591 97.958 44.4778C97.958 44.5964 97.9172 44.7114 97.8425 44.8035C95.0226 47.9539 91.3025 50.1614 87.1862 51.1271C83.0699 52.0928 78.7563 51.7701 74.8295 50.2025C74.7298 50.1641 74.6445 50.0958 74.5852 50.0069C74.526 49.918 74.4957 49.8129 74.4986 49.7061ZM96.7565 44.4622C95.1661 42.681 93.1125 41.3762 90.8244 40.6932C88.5362 40.0102 86.1034 39.9759 83.7968 40.594C76.7947 42.5281 75.719 47.8961 75.5225 49.3544C79.1469 50.7443 83.1036 51.0212 86.8863 50.1496C90.6689 49.2781 94.1056 47.2979 96.7565 44.4622Z" fill="#6CE9A6"/>
<path d="M74.5011 49.7073C74.5018 49.6132 74.5282 49.5211 74.5774 49.4409C74.6266 49.3607 74.6968 49.2955 74.7803 49.2522C75.4526 48.9005 91.329 40.802 102.479 44.9082C102.606 44.9569 102.708 45.0537 102.764 45.1776C102.821 45.3015 102.826 45.4425 102.779 45.5701C102.732 45.699 102.636 45.8041 102.512 45.8623C102.388 45.9205 102.246 45.927 102.117 45.8804C91.391 41.9294 75.4112 50.09 75.2251 50.1727C75.1029 50.234 74.9615 50.2445 74.8316 50.2019C74.7018 50.1593 74.5941 50.067 74.5321 49.9452C74.5016 49.8698 74.4909 49.7879 74.5011 49.7073Z" fill="#6CE9A6"/>
<path d="M223.982 69.695C224.001 69.6251 225.694 62.1871 217.883 57.61C210.072 53.0329 202.94 58.2317 202.871 58.2882C202.775 58.3579 202.706 58.4585 202.675 58.5731C202.645 58.6876 202.654 58.8093 202.703 58.9176C204.611 62.6905 207.633 65.7856 211.359 67.7838C215.085 69.782 219.335 70.5867 223.534 70.0889C223.64 70.0775 223.74 70.0336 223.821 69.9631C223.901 69.8925 223.957 69.7989 223.982 69.695ZM203.84 58.869C205.837 57.5601 208.158 56.8312 210.545 56.7638C212.932 56.6963 215.291 57.2928 217.359 58.4868C223.622 62.1673 223.272 67.6308 223.084 69.0903C219.224 69.4947 215.33 68.7381 211.902 66.9173C208.474 65.0964 205.667 62.2942 203.84 58.869Z" fill="#6CE9A6"/>
<path d="M223.98 69.6949C224.003 69.6039 224.002 69.5081 223.975 69.4179C223.948 69.3277 223.897 69.2465 223.828 69.1831C223.269 68.6694 210.03 56.7378 198.197 57.8182C198.062 57.8324 197.938 57.8993 197.852 58.0045C197.765 58.1096 197.724 58.2446 197.736 58.38C197.748 58.5166 197.814 58.6429 197.918 58.7312C198.023 58.8196 198.159 58.8627 198.296 58.851C209.678 57.8107 223.001 69.829 223.16 69.9571C223.262 70.048 223.396 70.0947 223.532 70.0872C223.669 70.0796 223.797 70.0183 223.888 69.9167C223.937 69.8518 223.969 69.7755 223.98 69.6949Z" fill="#6CE9A6"/>
<path d="M159.768 48.5502C157.264 45.2734 155.837 41.3012 155.683 37.1801C155.53 33.059 156.657 28.9915 158.909 25.5372C158.909 25.5372 166.015 27.099 166.687 35.8801C167.36 44.6612 159.768 48.5502 159.768 48.5502Z" fill="white"/>
<path d="M155.143 36.3963C155.184 32.4455 156.335 28.5858 158.463 25.257C158.519 25.1663 158.602 25.0954 158.7 25.0546C158.799 25.0137 158.907 25.0049 159.011 25.0295C159.094 25.0295 166.51 26.7774 167.203 35.8068C167.896 44.8361 160.087 48.9629 159.963 49.0043C159.859 49.0598 159.74 49.0777 159.625 49.0551C159.51 49.0325 159.406 48.9707 159.332 48.8802C156.641 45.2716 155.173 40.8977 155.143 36.3963ZM159.145 26.1362C157.063 29.4093 156.021 33.2362 156.155 37.1133C156.29 40.9903 157.596 44.7356 159.9 47.8562C161.946 46.6333 163.612 44.8678 164.715 42.7554C165.817 40.6431 166.313 38.2666 166.148 35.8895C165.62 28.6495 160.552 26.5706 159.145 26.1362Z" fill="#6CE9A6"/>
<path d="M157.42 53.1314C157.418 53.0367 157.443 52.9434 157.492 52.8625C163.419 43.0988 158.465 25.8572 158.413 25.6813C158.374 25.5442 158.392 25.3974 158.462 25.2733C158.532 25.1491 158.648 25.0578 158.785 25.0194C158.922 24.981 159.069 24.9987 159.193 25.0685C159.317 25.1383 159.409 25.2546 159.447 25.3917C159.654 26.1157 164.619 43.2332 158.413 53.4003C158.353 53.4933 158.265 53.5646 158.161 53.6037C158.058 53.6428 157.944 53.6477 157.838 53.6176C157.731 53.5875 157.637 53.524 157.569 53.4365C157.502 53.349 157.464 53.242 157.461 53.1314L157.42 53.1314Z" fill="#6CE9A6"/>
<path d="M59.2908 186.4C63.8416 186.4 67.5308 185.823 67.5308 185.11C67.5308 184.398 63.8416 183.82 59.2908 183.82C54.74 183.82 51.0508 184.398 51.0508 185.11C51.0508 185.823 54.74 186.4 59.2908 186.4Z" fill="#EAECF0"/>
<path d="M60.85 147.662C60.9259 146.504 60.6801 145.348 60.14 144.322C59.6043 143.645 59.1037 142.94 58.64 142.212C58.01 140.862 58.45 139.212 58.3 137.772C58.1715 136.523 57.6212 135.356 56.74 134.462C55.96 133.682 54.96 133.142 54.22 132.322C53 130.972 52.65 129.082 51.96 127.402C50.9732 125.028 49.2663 123.024 47.08 121.672C48.41 124.342 45.39 127.742 46.76 130.392C47.19 131.232 48.02 131.842 48.34 132.742C49.11 134.892 46.55 137.222 47.34 139.352C47.75 140.412 48.89 141.032 49.42 142.042C50.13 143.402 49.57 145.042 49.63 146.592C49.8601 148.725 50.8977 150.689 52.53 152.082C53.53 153.002 54.53 153.792 55.59 154.612C56.82 155.612 57.34 156.612 58.43 155.052C59.9325 152.873 60.7729 150.307 60.85 147.662Z" fill="#EAECF0"/>
<path d="M62.221 148.872C61.6868 147.248 61.6868 145.496 62.221 143.872C62.981 142.122 64.861 140.872 65.091 138.992C65.231 137.752 64.601 136.492 64.851 135.262C65.101 134.032 66.101 133.202 66.921 132.262C68.8213 130.17 69.9503 127.493 70.121 124.672C71.3935 126.17 72.4258 127.857 73.181 129.672C73.5476 130.591 73.6977 131.583 73.6196 132.569C73.5416 133.556 73.2375 134.512 72.731 135.362C72.4125 135.745 72.153 136.173 71.961 136.632C71.591 137.832 72.621 138.962 73.161 140.112C73.4773 140.767 73.609 141.496 73.542 142.22C73.4751 142.944 73.212 143.636 72.781 144.222C71.691 145.572 69.601 146.102 69.071 147.752C68.937 148.366 68.8733 148.993 68.881 149.622C68.7653 150.718 68.3218 151.754 67.6082 152.594C66.8945 153.435 65.9441 154.04 64.881 154.332C63.601 154.642 63.631 154.132 63.401 153.052C63.131 151.722 62.571 150.322 62.221 148.872Z" fill="#EAECF0"/>
<path d="M58.1384 137.07C57.2284 133.92 56.8584 130.62 55.8984 127.49C55.08 125.034 54.0772 122.644 52.8984 120.34L56.8084 121.99C58.0584 122.52 59.4184 123.14 60.0084 124.36C61.0084 126.5 59.1884 129.23 60.2784 131.36C60.7457 132.045 61.2603 132.696 61.8184 133.31C62.9684 134.92 62.8184 137.15 62.1684 139.03C61.8884 139.84 60.7084 144.03 59.6484 142.86C59.2284 142.39 59.1884 140.66 59.0084 140.02C58.7584 139 58.4184 138.05 58.1384 137.07Z" fill="#EAECF0"/>
<path d="M60.2812 179C59.5013 173.84 57.0612 155.68 57.0312 155.5L57.7012 155.41C57.7012 155.59 60.1712 173.75 60.9512 178.9L60.2812 179Z" fill="#EAECF0"/>
<path d="M61.1895 183.821H60.5195C60.5195 177.701 63.1095 154.321 64.5895 152.711L65.0895 153.171C64.1095 154.231 61.2595 175.441 61.1895 183.821Z" fill="#EAECF0"/>
<path d="M62.5216 182.66H61.8416C62.4316 169.47 59.6316 141.76 59.6016 141.48L60.2716 141.41C60.3016 141.66 63.1116 169.42 62.5216 182.66Z" fill="#EAECF0"/>
<path d="M53.5781 166.539H68.1381L67.1381 181.279C67.0519 182.508 66.5021 183.659 65.5998 184.498C64.6976 185.337 63.5103 185.802 62.2781 185.799H59.4681C58.237 185.802 57.0509 185.336 56.1502 184.497C55.2496 183.658 54.7019 182.507 54.6181 181.279L53.5781 166.539Z" fill="white"/>
<path d="M62.2587 186.301H59.4487C58.0898 186.3 56.7821 185.783 55.7893 184.855C54.7965 183.927 54.1923 182.657 54.0987 181.301L53.0987 166.561C53.0943 166.494 53.1036 166.427 53.1259 166.363C53.1483 166.3 53.1832 166.241 53.2287 166.191C53.2755 166.14 53.3327 166.099 53.3965 166.072C53.4603 166.044 53.5292 166.03 53.5987 166.031H68.1587C68.2268 166.03 68.2945 166.043 68.3567 166.071C68.419 166.099 68.4743 166.14 68.5187 166.191C68.5663 166.24 68.6026 166.298 68.6251 166.362C68.6476 166.426 68.6557 166.494 68.6487 166.561L67.6487 181.301C67.55 182.662 66.9388 183.935 65.9385 184.863C64.9382 185.791 63.6232 186.305 62.2587 186.301ZM54.1087 167.001L55.1087 181.201C55.1894 182.303 55.6836 183.334 56.4921 184.087C57.3007 184.84 58.3639 185.259 59.4687 185.261H62.2787C63.3835 185.259 64.4468 184.84 65.2553 184.087C66.0639 183.334 66.558 182.303 66.6387 181.201L67.6387 167.001H54.1087Z" fill="#EAECF0"/>
</svg>
