<?xml version="1.0" encoding="utf-8"?>
<!-- Generator: Adobe Illustrator 22.0.1, SVG Export Plug-In . SVG Version: 6.00 Build 0)  -->
<svg version="1.1" id="Capa_1" xmlns="http://www.w3.org/2000/svg" xmlns:xlink="http://www.w3.org/1999/xlink" x="0px" y="0px"
	 viewBox="0 0 94.7 99" style="enable-background:new 0 0 94.7 99;" xml:space="preserve">
<style type="text/css">
	.st0{fill:url(#SVGID_1_);}
	.st1{fill:url(#SVGID_2_);}
	.st2{fill:url(#SVGID_3_);}
	.st3{fill:url(#SVGID_4_);}
	.st4{fill:url(#SVGID_5_);}
	.st5{fill:url(#SVGID_6_);}
	.st6{fill:url(#SVGID_7_);}
	.st7{fill:url(#SVGID_8_);}
	.st8{fill:url(#SVGID_9_);}
	.st9{fill:url(#SVGID_10_);}
	.st10{fill:url(#SVGID_11_);}
	.st11{fill:url(#SVGID_12_);}
</style>
<g>
	<g>
		<linearGradient id="SVGID_1_" gradientUnits="userSpaceOnUse" x1="0.683" y1="49.5" x2="94.0183" y2="49.5">
			<stop  offset="0" style="stop-color:#FFF6C1"/>
			<stop  offset="0.4854" style="stop-color:#E2B42F"/>
			<stop  offset="0.6732" style="stop-color:#A05A2D"/>
			<stop  offset="0.8756" style="stop-color:#E2B42F"/>
		</linearGradient>
		<path class="st0" d="M58.8,86.3v2.8c0,2.2-1.7,4.1-3.9,4.4l-0.7,2.6c-0.4,1.4-1.7,2.4-3.2,2.4h-7.2c-1.5,0-2.8-1-3.2-2.4l-0.7-2.6
			c-2.3-0.3-4-2.2-4-4.5v-2.8c0-1.5,1.2-2.8,2.8-2.8H56C57.6,83.6,58.8,84.8,58.8,86.3L58.8,86.3z M71.7,47.2
			c0,6.6-2.6,12.5-6.8,16.9c-3.2,3.3-5.3,7.6-6,12.1c-0.3,1.9-2,3.4-4,3.4H39.8c-2,0-3.7-1.4-4-3.4c-0.7-4.5-2.8-8.8-6-12.1
			c-4.1-4.3-6.7-10.2-6.8-16.6C22.9,33.9,33.7,23,47.2,22.9C60.7,22.8,71.7,33.7,71.7,47.2L71.7,47.2z M50.1,32.5
			c0-1.5-1.2-2.7-2.7-2.7c-9.7,0-17.5,7.9-17.5,17.5c0,1.5,1.2,2.7,2.7,2.7c1.5,0,2.7-1.2,2.7-2.7c0-6.7,5.4-12.1,12.1-12.1
			C48.9,35.2,50.1,34,50.1,32.5L50.1,32.5z M47.4,14.2c1.4,0,2.5-1.1,2.5-2.5V3c0-1.4-1.2-2.6-2.7-2.5c-1.3,0.1-2.3,1.3-2.3,2.7v8.6
			C44.9,13.1,46,14.2,47.4,14.2L47.4,14.2z M14.4,47.2c0-1.4-1.1-2.5-2.5-2.5H3.2c-1.4,0-2.5,1.1-2.5,2.5c0,1.4,1.1,2.5,2.5,2.5h8.7
			C13.3,49.7,14.4,48.5,14.4,47.2L14.4,47.2z M91.5,44.7h-8.7c-1.4,0-2.5,1.1-2.5,2.5c0,1.4,1.1,2.5,2.5,2.5h8.7
			c1.4,0,2.5-1.1,2.5-2.5C94,45.8,92.9,44.7,91.5,44.7L91.5,44.7z M20.7,70l-6.8,6.8c-1.1,1.1-1.1,2.8,0,3.9
			c0.5,0.5,1.2,0.8,1.9,0.8c0.7,0,1.4-0.3,1.9-0.8l6.8-6.8c1.1-1.1,1.1-2.8,0-3.9C23.5,68.9,21.7,68.9,20.7,70L20.7,70z M72.1,25.2
			c0.7,0,1.4-0.3,1.9-0.8l6.8-6.8c1.1-1.1,1.1-2.8,0-3.9c-1.1-1.1-2.8-1.1-3.9,0l-6.8,6.8c-1.1,1.1-1.1,2.8,0,3.9
			C70.7,24.9,71.4,25.2,72.1,25.2L72.1,25.2z M20.7,24.3c0.5,0.5,1.2,0.8,1.9,0.8c0.7,0,1.4-0.3,1.9-0.8c1.1-1.1,1.1-2.8,0-3.9
			l-6.8-6.8c-1.1-1.1-2.8-1.1-3.9,0c-1.1,1.1-1.1,2.8,0,3.9L20.7,24.3z M74,70c-1.1-1.1-2.8-1.1-3.9,0c-1.1,1.1-1.1,2.8,0,3.9
			l6.8,6.8c0.5,0.5,1.2,0.8,1.9,0.8c0.7,0,1.4-0.3,1.9-0.8c1.1-1.1,1.1-2.8,0-3.9L74,70z M74,70"/>
	</g>
</g>
</svg>
